<svg width="14" height="14" viewBox="0 0 14 14" fill="none" xmlns="http://www.w3.org/2000/svg">
<path d="M6.99992 6.33325V4.33325L9.66659 6.99992L6.99992 9.66659V7.66659H4.33325V6.33325H6.99992ZM6.99992 0.333252C10.6799 0.333252 13.6666 3.31992 13.6666 6.99992C13.6666 10.6799 10.6799 13.6666 6.99992 13.6666C3.31992 13.6666 0.333252 10.6799 0.333252 6.99992C0.333252 3.31992 3.31992 0.333252 6.99992 0.333252ZM6.99992 12.3333C9.94659 12.3333 12.3333 9.94659 12.3333 6.99992C12.3333 4.05325 9.94659 1.66659 6.99992 1.66659C4.05325 1.66659 1.66659 4.05325 1.66659 6.99992C1.66659 9.94659 4.05325 12.3333 6.99992 12.3333Z" fill="#BBBBBB"/>
</svg>
