<svg width="80" height="80" viewBox="0 0 80 80" fill="none" xmlns="http://www.w3.org/2000/svg">
<circle cx="40" cy="40" r="40" fill="#389F6A"/>
<g clip-path="url(#clip0_1_333)">
<path d="M49.1666 54.6667H30.8333V56.5C30.8333 56.9862 30.6401 57.4525 30.2963 57.7964C29.9525 58.1402 29.4862 58.3333 29 58.3333H25.3333C24.8471 58.3333 24.3807 58.1402 24.0369 57.7964C23.6931 57.4525 23.5 56.9862 23.5 56.5V40H21.6666V32.6667H23.5V27.1667C23.5 26.1942 23.8863 25.2616 24.5739 24.5739C25.2615 23.8863 26.1942 23.5 27.1666 23.5H52.8333C53.8058 23.5 54.7384 23.8863 55.426 24.5739C56.1136 25.2616 56.5 26.1942 56.5 27.1667V32.6667H58.3333V40H56.5V56.5C56.5 56.9862 56.3068 57.4525 55.963 57.7964C55.6192 58.1402 55.1529 58.3333 54.6666 58.3333H51C50.5137 58.3333 50.0474 58.1402 49.7036 57.7964C49.3598 57.4525 49.1666 56.9862 49.1666 56.5V54.6667ZM27.1666 27.1667V40H52.8333V27.1667H27.1666ZM31.75 51C32.4793 51 33.1788 50.7103 33.6945 50.1945C34.2102 49.6788 34.5 48.9793 34.5 48.25C34.5 47.5207 34.2102 46.8212 33.6945 46.3055C33.1788 45.7897 32.4793 45.5 31.75 45.5C31.0206 45.5 30.3211 45.7897 29.8054 46.3055C29.2897 46.8212 29 47.5207 29 48.25C29 48.9793 29.2897 49.6788 29.8054 50.1945C30.3211 50.7103 31.0206 51 31.75 51ZM48.25 51C48.9793 51 49.6788 50.7103 50.1945 50.1945C50.7102 49.6788 51 48.9793 51 48.25C51 47.5207 50.7102 46.8212 50.1945 46.3055C49.6788 45.7897 48.9793 45.5 48.25 45.5C47.5206 45.5 46.8211 45.7897 46.3054 46.3055C45.7897 46.8212 45.5 47.5207 45.5 48.25C45.5 48.9793 45.7897 49.6788 46.3054 50.1945C46.8211 50.7103 47.5206 51 48.25 51Z" fill="white"/>
</g>
<defs>
<clipPath id="clip0_1_333">
<rect width="44" height="44" fill="white" transform="translate(18 18)"/>
</clipPath>
</defs>
</svg>
