<svg width="30" height="30" viewBox="0 0 30 30" fill="none" xmlns="http://www.w3.org/2000/svg">
<rect width="30" height="30" fill="#389F6A"/>
<g clip-path="url(#clip0_1_10)">
<path d="M19.167 21.6667H10.8337V22.5C10.8337 22.721 10.7459 22.933 10.5896 23.0893C10.4333 23.2455 10.2213 23.3333 10.0003 23.3333H8.33366C8.11265 23.3333 7.90068 23.2455 7.7444 23.0893C7.58812 22.933 7.50033 22.721 7.50033 22.5V15H6.66699V11.6667H7.50033V9.16667C7.50033 8.72464 7.67592 8.30072 7.98848 7.98816C8.30104 7.67559 8.72496 7.5 9.16699 7.5H20.8337C21.2757 7.5 21.6996 7.67559 22.0122 7.98816C22.3247 8.30072 22.5003 8.72464 22.5003 9.16667V11.6667H23.3337V15H22.5003V22.5C22.5003 22.721 22.4125 22.933 22.2562 23.0893C22.1 23.2455 21.888 23.3333 21.667 23.3333H20.0003C19.7793 23.3333 19.5674 23.2455 19.4111 23.0893C19.2548 22.933 19.167 22.721 19.167 22.5V21.6667ZM9.16699 9.16667V15H20.8337V9.16667H9.16699ZM11.2503 20C11.5818 20 11.8998 19.8683 12.1342 19.6339C12.3686 19.3995 12.5003 19.0815 12.5003 18.75C12.5003 18.4185 12.3686 18.1005 12.1342 17.8661C11.8998 17.6317 11.5818 17.5 11.2503 17.5C10.9188 17.5 10.6009 17.6317 10.3664 17.8661C10.132 18.1005 10.0003 18.4185 10.0003 18.75C10.0003 19.0815 10.132 19.3995 10.3664 19.6339C10.6009 19.8683 10.9188 20 11.2503 20ZM18.7503 20C19.0818 20 19.3998 19.8683 19.6342 19.6339C19.8686 19.3995 20.0003 19.0815 20.0003 18.75C20.0003 18.4185 19.8686 18.1005 19.6342 17.8661C19.3998 17.6317 19.0818 17.5 18.7503 17.5C18.4188 17.5 18.1009 17.6317 17.8664 17.8661C17.632 18.1005 17.5003 18.4185 17.5003 18.75C17.5003 19.0815 17.632 19.3995 17.8664 19.6339C18.1009 19.8683 18.4188 20 18.7503 20Z" fill="white"/>
</g>
<defs>
<clipPath id="clip0_1_10">
<rect width="20" height="20" fill="white" transform="translate(5 5)"/>
</clipPath>
</defs>
</svg>
