<svg width="20" height="20" viewBox="0 0 20 20" fill="none" xmlns="http://www.w3.org/2000/svg">
<g clip-path="url(#clip0_1_658)">
<path d="M14.167 16.6667H5.83366V17.5C5.83366 17.721 5.74586 17.933 5.58958 18.0893C5.4333 18.2455 5.22134 18.3333 5.00033 18.3333H4.16699C3.94598 18.3333 3.73402 18.2455 3.57774 18.0893C3.42146 17.933 3.33366 17.721 3.33366 17.5V16.6667H2.50033V10H1.66699V6.66667H2.50033V4.16667C2.50033 3.72464 2.67592 3.30072 2.98848 2.98816C3.30104 2.67559 3.72496 2.5 4.16699 2.5H15.8337C16.2757 2.5 16.6996 2.67559 17.0122 2.98816C17.3247 3.30072 17.5003 3.72464 17.5003 4.16667V6.66667H18.3337V10H17.5003V16.6667H16.667V17.5C16.667 17.721 16.5792 17.933 16.4229 18.0893C16.2666 18.2455 16.0547 18.3333 15.8337 18.3333H15.0003C14.7793 18.3333 14.5674 18.2455 14.4111 18.0893C14.2548 17.933 14.167 17.721 14.167 17.5V16.6667ZM4.16699 4.16667V11.6667H15.8337V4.16667H4.16699ZM4.16699 13.3333V15H7.50033V13.3333H4.16699ZM12.5003 13.3333V15H15.8337V13.3333H12.5003Z" fill="white"/>
</g>
<defs>
<clipPath id="clip0_1_658">
<rect width="20" height="20" fill="white"/>
</clipPath>
</defs>
</svg>
