<svg width="91" height="46" viewBox="0 0 91 46" fill="none" xmlns="http://www.w3.org/2000/svg">
<path d="M42.4439 36.193C41.6516 37.1759 40.6711 37.9782 39.5642 38.5494C38.5013 39.0832 37.3338 39.3563 36.1523 39.3475C34.0966 39.3475 32.4104 38.5468 31.0936 36.9455C29.7768 35.3442 29.118 33.2655 29.1172 30.7094C29.1172 27.5067 30.0092 24.8474 31.7931 22.7314C33.577 20.6153 35.8042 19.5578 38.4747 19.5586C39.6315 19.5387 40.7754 19.8127 41.8061 20.3567C42.7874 20.8896 43.6735 21.712 44.4644 22.8238L44.872 20.1458H50.8617L48.6676 34.4797C48.4891 35.6469 47.9139 36.7098 47.0456 37.4773C46.1773 38.2449 45.0729 38.6666 43.931 38.6666H42.1445L42.4439 36.193ZM35.4767 30.065C35.4767 31.2506 35.8252 32.2053 36.5222 32.9291C37.2192 33.653 38.1417 34.0136 39.2899 34.011C40.5421 34.011 41.5847 33.5067 42.4175 32.4982C43.2503 31.4897 43.6668 30.2273 43.6668 28.711C43.6668 27.5618 43.3183 26.6297 42.6213 25.9145C41.9243 25.1993 41.0148 24.8413 39.8926 24.8404C39.2926 24.8277 38.6975 24.9542 38.151 25.2108C37.6045 25.4675 37.1206 25.8476 36.7348 26.3233C35.8961 27.3145 35.4767 28.5617 35.4767 30.065Z" fill="#F04935"/>
<path d="M65.1669 38.6667L68.0013 20.1432H74.0627L73.6173 23.3042C74.1726 22.1317 74.9169 21.239 75.8504 20.6262C76.7839 20.0135 77.8709 19.7097 79.1113 19.7149C79.2593 19.716 79.4071 19.7251 79.5542 19.7423C79.7202 19.7605 79.9794 19.8008 80.3342 19.862L79.0761 25.675C78.6626 25.5778 78.2902 25.5045 77.9589 25.455C77.6422 25.4077 77.3228 25.3833 77.0028 25.3821C75.785 25.3821 74.8247 25.7766 74.1218 26.5655C73.419 27.3545 72.9376 28.5739 72.6776 30.2238L71.973 34.8925C71.8139 35.9479 71.2953 36.9096 70.5108 37.6039C69.7264 38.2982 68.7278 38.6793 67.6956 38.6784L65.1669 38.6667Z" fill="#F04935"/>
<path d="M80.6014 38.6662L83.4195 20.1428H89.7815L87.5975 34.4103C87.4157 35.5968 86.8308 36.6773 85.9481 37.4574C85.0653 38.2376 83.9425 38.6662 82.7816 38.6662H80.6014Z" fill="#F04935"/>
<path d="M83.8958 14.6228C83.8971 13.699 84.2524 12.8135 84.8837 12.1604C85.5151 11.5073 86.371 11.1399 87.2636 11.1389C88.2433 11.1389 89.0585 11.4687 89.7093 12.1284C90.0295 12.4519 90.2815 12.8406 90.4493 13.2699C90.6171 13.6992 90.6971 14.1599 90.6843 14.6228C90.6885 15.0889 90.6029 15.5511 90.4325 15.9826C90.2621 16.414 90.0103 16.806 89.6918 17.1355C89.3733 17.4651 88.9945 17.7257 88.5776 17.9021C88.1607 18.0784 87.714 18.167 87.2636 18.1627C86.8182 18.1694 86.3763 18.0803 85.9659 17.901C85.5555 17.7217 85.1856 17.4562 84.8796 17.1211C84.5616 16.7946 84.3106 16.4051 84.1415 15.9758C83.9725 15.5465 83.8889 15.0863 83.8958 14.6228Z" fill="#F04935"/>
<path d="M62.7884 19.0195H56.5068L56.3395 20.1431H53.3629L52.6357 24.8755H55.6136L53.5038 38.6665H55.9734C57.0382 38.6665 58.0681 38.2731 58.8775 37.557C59.6868 36.841 60.2225 35.8493 60.388 34.7608L61.8863 24.8768H65.0944L65.8216 20.1444H62.6135L62.7884 19.0195Z" fill="#F04935"/>
<path d="M63.4444 14.77H57.1352L56.5049 19.0194H62.7852L63.4444 14.77Z" fill="#F04935"/>
<path d="M13.8208 4.27974C13.8138 3.73399 13.9143 3.19248 14.1161 2.68821C14.3179 2.18394 14.6168 1.72746 14.9945 1.34656C15.3619 0.95065 15.8042 0.637401 16.2939 0.426388C16.7835 0.215374 17.31 0.11113 17.8403 0.12017C19.0103 0.12017 19.9832 0.514212 20.759 1.30229C21.5348 2.09038 21.9227 3.08286 21.9227 4.27974C21.9329 4.8361 21.8331 5.38874 21.6293 5.90369C21.4255 6.41864 21.122 6.885 20.7376 7.27411C20.3616 7.67191 19.911 7.98592 19.4133 8.19682C18.9157 8.40773 18.3817 8.51107 17.8441 8.50049C17.3129 8.50914 16.7857 8.40369 16.2959 8.19081C15.8061 7.97793 15.3642 7.66224 14.9983 7.26369C14.618 6.874 14.3176 6.40882 14.1153 5.89606C13.9129 5.38331 13.8128 4.83354 13.8208 4.27974Z" fill="#F04935"/>
<path d="M3.60589 26.7407C3.11398 26.8123 2.70762 26.8709 2.33901 27.0779C1.98166 27.2477 1.67509 27.5139 1.4515 27.8486C1.22791 28.1832 1.09556 28.5741 1.06836 28.98L2.53904 40.5851L2.89256 43.5157C2.90587 43.7044 2.94006 43.8909 2.99446 44.0716C3.03902 44.2169 3.10386 44.3546 3.18695 44.4804C3.35352 44.7341 3.58355 44.9361 3.85247 45.065C4.13757 45.1995 4.44821 45.2662 4.76151 45.2601C5.07481 45.254 5.3828 45.1753 5.66283 45.0298C5.91909 44.9037 6.13683 44.707 6.29218 44.4613C6.44753 44.2155 6.53447 43.9303 6.54348 43.6368L5.3458 32.0603L5.21999 30.8144L6.43151 30.6842L13.4163 29.9148L15.1638 29.7338C15.6527 29.6913 16.1352 29.5904 16.6018 29.4331C17.4409 29.1258 17.8913 28.6246 18.2083 27.6781C18.4964 26.7967 18.6323 25.474 18.8688 24.314L19.4852 20.7338L20.7194 13.5733L21.0289 11.8119C21.1168 11.3392 21.1206 10.8539 21.0402 10.3798C21.0166 10.2062 20.9564 10.0402 20.864 9.8933C20.7717 9.74642 20.6493 9.62228 20.5055 9.52962C20.2086 9.33824 19.7419 9.24451 19.2475 9.23279C17.1754 9.20024 14.9977 10.0946 13.6277 11.8119C12.9246 12.6704 12.4165 13.6812 12.1406 14.7698C12.0133 15.3559 11.9196 15.9493 11.8601 16.5469L11.6211 18.3851L10.6674 25.5274C8.7992 25.9726 6.90706 26.2109 5.02625 26.5207L3.60589 26.7407Z" fill="#F04935"/>
<path d="M29.9273 10.2954H23.9175L23.2532 14.6359L23.2042 14.9536L22.7588 17.7748C22.2065 21.2899 21.6354 24.9196 21.0365 28.4921C20.6591 30.7508 19.0236 32.3183 16.7591 32.5852C15.5828 32.7245 14.1058 32.8938 8.8584 33.0474L10.2687 39.2679C14.4707 39.247 16.6484 38.8395 17.1692 38.7588C22.5185 37.9282 25.9518 34.8622 26.8362 30.1259C27.5911 26.1044 28.2012 22.0008 28.8051 17.961C29.0064 16.6131 29.2098 15.2648 29.4153 13.916C29.4253 13.8548 29.4216 13.7975 29.4278 13.7376L29.9273 10.2954Z" fill="#F04935"/>
</svg>
