<svg width="18" height="17" viewBox="0 0 18 17" fill="none" xmlns="http://www.w3.org/2000/svg">
<path d="M13.1665 14.6667H4.83317V15.5C4.83317 15.721 4.74537 15.933 4.58909 16.0893C4.43281 16.2455 4.22085 16.3333 3.99984 16.3333H2.33317C2.11216 16.3333 1.9002 16.2455 1.74391 16.0893C1.58763 15.933 1.49984 15.721 1.49984 15.5V8H0.666504V4.66667H1.49984V2.16667C1.49984 1.72464 1.67543 1.30072 1.98799 0.988155C2.30055 0.675595 2.72448 0.5 3.1665 0.5H14.8332C15.2752 0.5 15.6991 0.675595 16.0117 0.988155C16.3242 1.30072 16.4998 1.72464 16.4998 2.16667V4.66667H17.3332V8H16.4998V15.5C16.4998 15.721 16.412 15.933 16.2558 16.0893C16.0995 16.2455 15.8875 16.3333 15.6665 16.3333H13.9998C13.7788 16.3333 13.5669 16.2455 13.4106 16.0893C13.2543 15.933 13.1665 15.721 13.1665 15.5V14.6667ZM3.1665 2.16667V8H14.8332V2.16667H3.1665ZM5.24984 13C5.58136 13 5.8993 12.8683 6.13372 12.6339C6.36814 12.3995 6.49984 12.0815 6.49984 11.75C6.49984 11.4185 6.36814 11.1005 6.13372 10.8661C5.8993 10.6317 5.58136 10.5 5.24984 10.5C4.91832 10.5 4.60037 10.6317 4.36595 10.8661C4.13153 11.1005 3.99984 11.4185 3.99984 11.75C3.99984 12.0815 4.13153 12.3995 4.36595 12.6339C4.60037 12.8683 4.91832 13 5.24984 13ZM12.7498 13C13.0814 13 13.3993 12.8683 13.6337 12.6339C13.8681 12.3995 13.9998 12.0815 13.9998 11.75C13.9998 11.4185 13.8681 11.1005 13.6337 10.8661C13.3993 10.6317 13.0814 10.5 12.7498 10.5C12.4183 10.5 12.1004 10.6317 11.866 10.8661C11.6315 11.1005 11.4998 11.4185 11.4998 11.75C11.4998 12.0815 11.6315 12.3995 11.866 12.6339C12.1004 12.8683 12.4183 13 12.7498 13Z" fill="#151414"/>
</svg>
